<?xml version="1.0" encoding="utf-8"?>
<svg viewBox="0 0 64 64" fill="#000000" style="fill-rule:evenodd;clip-rule:evenodd;stroke-linejoin:round;stroke-miterlimit:2;" xmlns="http://www.w3.org/2000/svg">
  <rect id="Icons" x="-768" y="-192" width="1280" height="800" style="fill:none;" transform="matrix(1, 0, 0, 1, -3.552713678800501e-15, 0)"/>
  <g id="Icons1" style="transform-origin: 31.9485px 32.0073px;" transform="matrix(0, -1, 1, 0, -0.000036057085, 0.000032424927)">
    <g id="Strike"/>
    <g id="H1"/>
    <g id="H2"/>
    <g id="H3"/>
    <g id="list-ul"/>
    <g id="hamburger-1"/>
    <g id="hamburger-2"/>
    <g id="list-ol"/>
    <g id="list-task"/>
    <g id="trash"/>
    <g id="vertical-menu"/>
    <g id="horizontal-menu"/>
    <g id="sidebar-2"/>
    <g id="Pen"/>
    <g id="Pen1"/>
    <g id="clock"/>
    <g id="external-link"/>
    <g id="hr"/>
    <g id="info"/>
    <g id="warning"/>
    <g id="plus-circle"/>
    <g id="minus-circle"/>
    <g id="vue"/>
    <g id="cog"/>
    <g id="logo"/>
    <path id="hammer" d="M30.651,23.538l25.24,24.346l-6.577,6.577l-23.969,-25.617l5.306,-5.306Zm-7.208,3.403l5.306,-5.305c0,0 -2.695,-2.056 -2.447,-3.34c0.248,-1.285 0.809,-3.1 4.711,-4.711c3.903,-1.611 7.543,-1.757 7.543,-1.757l0.131,-1.758c0,0 -8.969,-1.356 -13.707,0.327c-4.738,1.684 -10.097,8.02 -10.097,8.02c0,0 0.935,3.064 -0.667,4.666c-1.601,1.601 -3.754,-0.245 -3.754,-0.245l-2.456,3.118l6.197,6.197l3.112,-2.461c0,0 -1.472,-2.207 -0.017,-3.528c3.132,-2.842 6.145,0.777 6.145,0.777Z"/>
    <g id="radio-check"/>
    <g id="eye-slash"/>
    <g id="eye"/>
    <g id="toggle-off"/>
    <g id="shredder"/>
    <g id="spinner--loading--dots-"/>
    <g id="react"/>
    <g id="check-selected"/>
    <g id="turn-off"/>
    <g id="code-block"/>
    <g id="user"/>
    <g id="coffee-bean"/>
    <g id="coffee-beans">
      <g id="coffee-bean1"/>
    </g>
    <g id="coffee-bean-filled"/>
    <g id="coffee-beans-filled">
      <g id="coffee-bean2"/>
    </g>
    <g id="clipboard"/>
    <g id="clipboard-paste"/>
    <g id="clipboard-copy"/>
    <g id="Layer1"/>
  </g>
</svg>